<?xml version="1.0" encoding="UTF-8"?>
<svg id="Layer_1" data-name="Layer 1" xmlns="http://www.w3.org/2000/svg" viewBox="0 0 493.85 480.16">
  <defs>
    <style>
      .cls-1 {
        fill: #cad400;
      }

      .cls-2 {
        fill: #00365c;
      }

      .cls-3 {
        fill: #1c1c1b;
      }

      .cls-4 {
        fill: #0098d8;
      }
    </style>
  </defs>
  <g>
    <polygon class="cls-3" points="193.73 414.2 145.75 414.2 145.75 402.01 193.73 402.01 193.73 388.45 145.75 388.45 145.75 377.56 193.73 377.56 193.73 364.07 128.74 364.07 128.74 427.67 193.73 427.67 193.73 414.2"/>
    <polygon class="cls-3" points="400.46 389.22 440.75 427.67 453.58 427.67 453.58 364.07 436.57 364.07 436.57 402.53 396.28 364.07 383.45 364.07 383.45 427.67 400.46 427.67 400.46 389.22"/>
    <path class="cls-3" d="M365.12,364.07h-70.14v63.59h70.14v-63.59ZM348.12,414.2h-36.12v-36.65h36.12v36.65Z"/>
    <polygon class="cls-3" points="57.28 389.22 97.58 427.67 110.41 427.67 110.41 364.07 93.4 364.07 93.4 402.53 53.1 364.07 40.26 364.07 40.26 427.67 57.28 427.67 57.28 389.22"/>
    <polygon class="cls-3" points="244.4 408.03 261.82 427.67 283.31 427.67 255.14 395.9 283.38 364.07 261.86 364.07 244.4 383.79 226.93 364.07 205.43 364.07 233.64 395.9 205.49 427.67 226.99 427.67 244.4 408.03"/>
  </g>
  <g>
    <polygon class="cls-4" points="128.74 196.98 128.74 286.79 247.95 223.4 128.74 196.98"/>
    <polygon class="cls-2" points="247.95 52.49 128.74 115.88 128.74 196.98 247.95 223.4 247.95 52.49"/>
    <polygon class="cls-1" points="247.95 223.4 128.74 286.79 276.58 319.58 395.79 256.18 247.95 223.4"/>
  </g>
</svg>