<?xml version="1.0" encoding="UTF-8"?>
<svg id="_레이어_1" data-name="레이어 1" xmlns="http://www.w3.org/2000/svg" viewBox="0 0 14 14">
  <defs>
    <style>
      .cls-1 {
        fill: none;
        stroke: #e5fc8a;
      }

      .cls-2 {
        fill: #326d1b;
      }

      .cls-3 {
        fill: #e5fc8a;
      }
    </style>
  </defs>
  <polygon class="cls-2" points="1.36 3.73 1.36 10.24 7 13.5 12.64 10.24 12.64 3.73 7 .47 1.36 3.73"/>
  <path class="cls-3" d="M7.2,3l-3.45,1.99v3.98l3.46,2,3.04-1.97-1.1-.95h0s-1.95,1.18-1.95,1.18l-1.95-1.12v-2.25l1.95-1.12,1.8,1.04,1.25-1.01v-.02l-3.05-1.75Z"/>
  <polyline class="cls-1" points="1.36 8.49 1.36 10.24 7 13.5 12.64 10.24 12.64 8.49"/>
  <polyline class="cls-1" points="12.64 6.02 12.64 3.73 7 .47 1.36 3.73 1.36 6.02"/>
  <line class="cls-1" x1="1.36" y1="7.74" x2="1.36" y2="6.77"/>
  <line class="cls-1" x1="12.64" y1="7.74" x2="12.64" y2="6.77"/>
</svg>